<svg width="240" height="48" viewBox="0 0 240 48" fill="none" xmlns="http://www.w3.org/2000/svg">
  <defs>
    <linearGradient id="logoGreenGradientDarkMaster" x1="0" y1="0" x2="1" y2="1">
      <stop stop-color="#4ade80" />
      <stop offset="1" stop-color="#16a34a" />
    </linearGradient>
    <linearGradient id="logoDarkGradientDarkMaster" x1="0" y1="0" x2="1" y2="1">
      <stop stop-color="#334155" />
      <stop offset="1" stop-color="#0f172a" />
    </linearGradient>
  </defs>
  <g transform="translate(4, 4) scale(0.31)">
    <rect x="8" y="8" width="52" height="52" rx="12" fill="url(#logoDarkGradientDarkMaster)"/>
    <path d="M82 8 H116 C118.209 8 120 9.79086 120 12 V46 C120 53.732 113.732 60 106 60 H72 C69.7909 60 68 58.2091 68 56 V22 C68 14.268 74.268 8 82 8 Z" fill="url(#logoGreenGradientDarkMaster)"/>
    <rect x="8" y="68" width="52" height="52" rx="12" fill="url(#logoDarkGradientDarkMaster)"/>
    <rect x="68" y="68" width="52" height="52" rx="12" fill="url(#logoDarkGradientDarkMaster)"/>
  </g>
  <text x="52" y="32" fill="#ffffff" style="font-family: 'Inter', sans-serif; font-size: 28px; font-weight: 700; letter-spacing: -0.03em;">Green Pay</text>
</svg>